<?xml version="1.0" encoding="UTF-8"?>
<svg version="1.1" xmlns="http://www.w3.org/2000/svg" width="3234" height="3234">
<path d="M0 0 C1067.22 0 2134.44 0 3234 0 C3234 1067.22 3234 2134.44 3234 3234 C2166.78 3234 1099.56 3234 0 3234 C0 2166.78 0 1099.56 0 0 Z M522 574 C521.12102051 574.14453613 520.24204102 574.28907227 519.33642578 574.43798828 C478.28149304 581.44736704 439.20007639 599.04544121 406.5078125 624.82861328 C405.22104579 625.82827433 403.8951822 626.77726765 402.5625 627.71484375 C401.7890625 628.35099609 401.7890625 628.35099609 401 629 C401 629.66 401 630.32 401 631 C400.1646875 631.37125 400.1646875 631.37125 399.3125 631.75 C396.57589087 633.22924818 394.32349131 634.93467439 392 637 C392 637.66 392 638.32 392 639 C391.43796875 639.2371875 390.8759375 639.474375 390.296875 639.71875 C387.48105958 641.28947697 385.52044584 643.21471464 383.25 645.5 C382.45078125 646.2940625 381.6515625 647.088125 380.828125 647.90625 C378.78076391 649.78783462 378.78076391 649.78783462 379 652 C377.515 652.495 377.515 652.495 376 653 C372.35986933 656.47935472 372.35986933 656.47935472 371 661 C370.34 661 369.68 661 369 661 C367.40598532 662.81778981 365.94698129 664.63171717 364.5 666.5625 C364.05640137 667.14966797 363.61280273 667.73683594 363.15576172 668.34179688 C329.61661185 713.21862475 310.80492584 766.49483394 310.75 822.625 C310.74899292 823.34521332 310.74798584 824.06542664 310.74694824 824.8074646 C310.75966527 838.36774777 311.79327864 851.60659085 314 865 C314.2168042 866.31846924 314.2168042 866.31846924 314.43798828 867.66357422 C321.44736704 908.71850696 339.04544121 947.79992361 364.82861328 980.4921875 C365.82827433 981.77895421 366.77726765 983.1048178 367.71484375 984.4375 C368.35099609 985.2109375 368.35099609 985.2109375 369 986 C369.66 986 370.32 986 371 986 C371.2475 986.556875 371.495 987.11375 371.75 987.6875 C373.22924818 990.42410913 374.93467439 992.67650869 377 995 C377.66 995 378.32 995 379 995 C379.2371875 995.56203125 379.474375 996.1240625 379.71875 996.703125 C381.28947697 999.51894042 383.21471464 1001.47955416 385.5 1003.75 C386.2940625 1004.54921875 387.088125 1005.3484375 387.90625 1006.171875 C389.78783462 1008.21923609 389.78783462 1008.21923609 392 1008 C392.495 1009.485 392.495 1009.485 393 1011 C396.47935472 1014.64013067 396.47935472 1014.64013067 401 1016 C401 1016.66 401 1017.32 401 1018 C402.81778981 1019.59401468 404.63171717 1021.05301871 406.5625 1022.5 C407.44325195 1023.16539795 407.44325195 1023.16539795 408.34179688 1023.84423828 C453.21862475 1057.38338815 506.49483394 1076.19507416 562.625 1076.25 C563.34521332 1076.25100708 564.06542664 1076.25201416 564.8074646 1076.25305176 C578.36774777 1076.24033473 591.60659085 1075.20672136 605 1073 C605.87897949 1072.85546387 606.75795898 1072.71092773 607.66357422 1072.56201172 C648.71850696 1065.55263296 687.79992361 1047.95455879 720.4921875 1022.17138672 C721.77895421 1021.17172567 723.1048178 1020.22273235 724.4375 1019.28515625 C724.953125 1018.86105469 725.46875 1018.43695312 726 1018 C726 1017.34 726 1016.68 726 1016 C726.556875 1015.7525 727.11375 1015.505 727.6875 1015.25 C730.42410913 1013.77075182 732.67650869 1012.06532561 735 1010 C735 1009.34 735 1008.68 735 1008 C735.56203125 1007.7628125 736.1240625 1007.525625 736.703125 1007.28125 C739.51894042 1005.71052303 741.47955416 1003.78528536 743.75 1001.5 C744.54921875 1000.7059375 745.3484375 999.911875 746.171875 999.09375 C748.21923609 997.21216538 748.21923609 997.21216538 748 995 C748.99 994.67 749.98 994.34 751 994 C754.64013067 990.52064528 754.64013067 990.52064528 756 986 C756.66 986 757.32 986 758 986 C759.59401468 984.18221019 761.05301871 982.36828283 762.5 980.4375 C762.94359863 979.85033203 763.38719727 979.26316406 763.84423828 978.65820312 C797.38338815 933.78137525 816.19507416 880.50516606 816.25 824.375 C816.25100708 823.65478668 816.25201416 822.93457336 816.25305176 822.1925354 C816.24033473 808.63225223 815.20672136 795.39340915 813 782 C812.7831958 780.68153076 812.7831958 780.68153076 812.56201172 779.33642578 C805.55263296 738.28149304 787.95455879 699.20007639 762.17138672 666.5078125 C761.17172567 665.22104579 760.22273235 663.8951822 759.28515625 662.5625 C758.86105469 662.046875 758.43695312 661.53125 758 661 C757.34 661 756.68 661 756 661 C755.62875 660.1646875 755.62875 660.1646875 755.25 659.3125 C753.77075182 656.57589087 752.06532561 654.32349131 750 652 C749.34 652 748.68 652 748 652 C747.64421875 651.15695312 747.64421875 651.15695312 747.28125 650.296875 C745.71052303 647.48105958 743.78528536 645.52044584 741.5 643.25 C740.7059375 642.45078125 739.911875 641.6515625 739.09375 640.828125 C737.21216538 638.78076391 737.21216538 638.78076391 735 639 C734.67 638.01 734.34 637.02 734 636 C730.52064528 632.35986933 730.52064528 632.35986933 726 631 C726 630.34 726 629.68 726 629 C724.18221019 627.40598532 722.36828283 625.94698129 720.4375 624.5 C719.55674805 623.83460205 719.55674805 623.83460205 718.65820312 623.15576172 C673.78137525 589.61661185 620.50516606 570.80492584 564.375 570.75 C563.65478668 570.74899292 562.93457336 570.74798584 562.1925354 570.74694824 C548.63225223 570.75966527 535.39340915 571.79327864 522 574 Z M1125 650 C1125 1318.58 1125 1987.16 1125 2676 C1264.26 2676 1403.52 2676 1547 2676 C1547.33 2234.46 1547.66 1792.92 1548 1338 C1561.58231707 1359.50533537 1561.58231707 1359.50533537 1567.8125 1369.6875 C1573.00413183 1378.14886149 1578.22806777 1386.58843825 1583.5 1395 C1589.38414702 1404.38969519 1595.20389671 1413.81744397 1601.00195312 1423.26049805 C1606.26536044 1431.82511134 1611.5822757 1440.35527831 1616.91796875 1448.875 C1620.57489874 1454.71517177 1624.20464562 1460.56991948 1627.8046875 1466.4453125 C1630.24092949 1470.40450226 1632.71544896 1474.33967862 1635.18432617 1478.27856445 C1640.91370166 1487.42005008 1646.59642266 1496.58570328 1652.1875 1505.8125 C1656.89307272 1513.57613707 1661.67238996 1521.28582901 1666.53857422 1528.94970703 C1670.72291409 1535.54367337 1674.83747857 1542.17913822 1678.94042969 1548.82397461 C1683.04050754 1555.46026423 1687.17149468 1562.07668657 1691.3125 1568.6875 C1697.26326032 1578.19134314 1703.15150592 1587.73229293 1709.01879883 1597.2878418 C1713.47944667 1604.54620276 1717.97614752 1611.78088383 1722.5 1619 C1728.38634033 1628.39335994 1734.20857593 1637.82459188 1740.00854492 1647.27148438 C1745.19126082 1655.70532017 1750.42931667 1664.10338421 1755.68725586 1672.49047852 C1759.98256494 1679.34955199 1764.21423645 1686.2447889 1768.41333008 1693.16308594 C1771.12237206 1697.61140014 1773.93954577 1701.96251596 1776.875 1706.265625 C1778.47400782 1708.73076205 1779.68672588 1711.37345175 1781 1714 C1781.96482852 1715.46785878 1782.94551007 1716.92535885 1783.9375 1718.375 C1786.70348212 1722.4377518 1788.90064467 1726.55905604 1791 1731 C1791.66 1731 1792.32 1731 1793 1731 C1793.24878906 1731.69222656 1793.49757813 1732.38445312 1793.75390625 1733.09765625 C1795.19051263 1736.44373319 1796.99127233 1739.36050318 1798.9375 1742.4375 C1801.52878078 1746.53995761 1803.89554182 1750.62615745 1806 1755 C1806.66 1755 1807.32 1755 1808 1755 C1808.2781958 1755.73758545 1808.5563916 1756.4751709 1808.84301758 1757.23510742 C1809.89876482 1759.75807376 1811.0640069 1761.92539872 1812.51171875 1764.23828125 C1813.01421143 1765.04547607 1813.5167041 1765.8526709 1814.03442383 1766.68432617 C1814.57993896 1767.55162354 1815.1254541 1768.4189209 1815.6875 1769.3125 C1816.26201904 1770.23329346 1816.83653809 1771.15408691 1817.4284668 1772.1027832 C1819.28165972 1775.071035 1821.14045803 1778.03572236 1823 1781 C1825.43856546 1784.89516703 1827.87551388 1788.79134473 1830.3125 1792.6875 C1830.93535889 1793.68241455 1831.55821777 1794.6773291 1832.19995117 1795.70239258 C1837.51692172 1804.2039822 1842.7719947 1812.74282895 1848.01879883 1821.2878418 C1852.47944667 1828.54620276 1856.97614752 1835.78088383 1861.5 1843 C1867.39001022 1852.39921631 1873.21554193 1861.83653057 1879.01953125 1871.2890625 C1883.47995915 1878.5470015 1887.97639951 1885.78128596 1892.5 1893 C1897.7068149 1901.30898041 1902.86918046 1909.64388115 1908 1918 C1913.1945966 1926.45941159 1918.41989057 1934.8983519 1923.6875 1943.3125 C1924.60885742 1944.78553589 1924.60885742 1944.78553589 1925.54882812 1946.28833008 C1927.96517973 1950.15134703 1930.38156848 1954.01432766 1932.80322266 1957.87402344 C1944.65713247 1976.77910606 1944.65713247 1976.77910606 1949.6328125 1986.6015625 C1950.83075 1988.96249279 1950.83075 1988.96249279 1952.40209961 1990.35888672 C1954.2935694 1992.30150856 1955.54204337 1994.32891204 1956.93359375 1996.65625 C1957.49377197 1997.58646973 1958.0539502 1998.51668945 1958.63110352 1999.47509766 C1959.52526978 2000.97242432 1959.52526978 2000.97242432 1960.4375 2002.5 C1964.9095642 2009.92083696 1969.41392624 2017.31329472 1974.0625 2024.625 C1978.73411991 2031.98082711 1983.34089992 2039.37412226 1987.91845703 2046.78881836 C1992.84579215 2054.76504317 1997.81600035 2062.7141315 2002.80004883 2070.6550293 C2006.15244532 2076.00578518 2009.45176239 2081.38306097 2012.6887207 2086.80444336 C2017.492928 2094.84842702 2022.48296279 2102.77541014 2027.5 2110.6875 C2033.03261714 2119.41676012 2038.45226758 2128.21313973 2043.85864258 2137.02099609 C2049.05295892 2145.47726166 2054.29795345 2153.90059304 2059.56567383 2162.3112793 C2064.09942699 2169.55201833 2068.60277291 2176.81098491 2073.09326172 2184.07861328 C2077.14376796 2190.62912794 2081.22451575 2197.16032349 2085.3125 2203.6875 C2090.58065282 2212.10130605 2095.80526969 2220.54067701 2101 2229 C2109.73126954 2243.21522373 2118.53850678 2257.38288239 2127.46484375 2271.4765625 C2128.00979492 2272.33709229 2128.55474609 2273.19762207 2129.11621094 2274.08422852 C2130.12435154 2275.67428993 2131.13398622 2277.26340562 2132.14550781 2278.85131836 C2134.48867757 2282.54319251 2136.7315241 2286.2615893 2138.88012695 2290.0715332 C2141.38700163 2294.38847304 2144.09190963 2298.5877389 2146.75 2302.8125 C2152.20910872 2311.51597097 2157.62560635 2320.2439728 2163 2329 C2168.81192111 2338.46510849 2174.670879 2347.8992673 2180.56640625 2357.3125 C2185.09996382 2364.55280185 2189.60302233 2371.81138857 2194.09326172 2379.07861328 C2198.14376796 2385.62912794 2202.22451575 2392.16032349 2206.3125 2398.6875 C2212.25725477 2408.18191205 2218.13986048 2417.71320451 2224.0012207 2427.25927734 C2228.63415991 2434.79806031 2233.30449938 2442.31253758 2238 2449.8125 C2246.29438299 2463.06191339 2246.29438299 2463.06191339 2249.6875 2468.5625 C2250.24824219 2469.47128906 2250.80898437 2470.38007813 2251.38671875 2471.31640625 C2252.60547223 2473.34372742 2253.78971395 2475.39185114 2254.95703125 2477.44921875 C2256.8584415 2480.79314076 2258.90262594 2484.02449293 2261 2487.25 C2264.80218854 2493.12610956 2268.56905963 2499.02378285 2272.3125 2504.9375 C2273.06756836 2506.12617676 2273.06756836 2506.12617676 2273.83789062 2507.33886719 C2275.9675357 2510.70677719 2278.07026015 2514.07534622 2280.02734375 2517.546875 C2282.31490311 2521.55123634 2284.76884777 2525.42635291 2287.25 2529.3125 C2292.17239113 2537.06286064 2297.01061253 2544.86196491 2301.8125 2552.6875 C2307.10765088 2561.31595437 2312.43655578 2569.92164419 2317.8125 2578.5 C2324.44742378 2589.08950836 2331.06262349 2599.69562549 2337.44921875 2610.4375 C2339.76501722 2614.26410906 2342.1683427 2618.03457068 2344.5625 2621.8125 C2348.57670266 2628.15782723 2352.5820075 2634.50846299 2356.5625 2640.875 C2356.96734619 2641.52186768 2357.37219238 2642.16873535 2357.78930664 2642.83520508 C2359.35280055 2645.33831939 2360.90732142 2647.84489353 2362.42114258 2650.37841797 C2365.23776512 2655.05522218 2368.19447269 2659.64403991 2371.125 2664.25 C2371.77082031 2665.26835937 2372.41664062 2666.28671875 2373.08203125 2667.3359375 C2373.69691406 2668.30273438 2374.31179688 2669.26953125 2374.9453125 2670.265625 C2375.50750488 2671.15024414 2376.06969727 2672.03486328 2376.64892578 2672.94628906 C2377.83983159 2674.90720113 2377.83983159 2674.90720113 2379 2676 C2529.15 2676 2679.3 2676 2834 2676 C2834 2007.42 2834 1338.84 2834 650 C2694.74 650 2555.48 650 2412 650 C2411.67 1089.23 2411.34 1528.46 2411 1981 C2409.02 1977.7 2407.04 1974.4 2405 1971 C2403.55950071 1968.82143571 2402.10190884 1966.65404755 2400.625 1964.5 C2395.21878631 1956.50815983 2390.21080414 1948.27858392 2385.17749023 1940.04882812 C2380.75076379 1932.81973806 2376.25798319 1925.63900349 2371.6875 1918.5 C2367.55372855 1912.04141487 2363.47566616 1905.55714413 2359.5 1899 C2353.7237565 1889.47657078 2347.72597599 1880.09795958 2341.72998047 1870.71191406 C2334.96231291 1860.10293138 2328.24591024 1849.4630397 2321.67578125 1838.73046875 C2320.21590939 1836.35179642 2318.73845093 1833.98583607 2317.25 1831.625 C2315.79804112 1829.31725078 2314.45170704 1827.01307268 2313.125 1824.625 C2311.5795233 1821.88086617 2309.8483656 1819.36181584 2308 1816.8125 C2304.46771877 1811.84617298 2301.35693987 1806.67474338 2298.25 1801.4375 C2294.50615862 1795.13143991 2290.70307779 1788.88690237 2286.6875 1782.75 C2280.29286685 1772.97161781 2274.12861308 1763.05221127 2267.95263672 1753.13476562 C2264.74359592 1747.98296719 2261.52855477 1742.83492203 2258.3125 1737.6875 C2257.68633789 1736.68517334 2257.06017578 1735.68284668 2256.41503906 1734.65014648 C2252.62642214 1728.5896494 2248.82166732 1722.53970275 2245 1716.5 C2237.30101223 1704.33264116 2229.68742066 1692.11191904 2222.06347656 1679.89746094 C2215.72995992 1669.75166063 2209.39528868 1659.60701335 2203 1649.5 C2196.60014247 1639.38576612 2190.26124107 1629.23370157 2183.92333984 1619.08056641 C2180.78410778 1614.05253516 2177.64196553 1609.02632342 2174.5 1604 C2170.71334447 1597.94234112 2166.92739003 1591.88424953 2163.14453125 1585.82421875 C2157.44978005 1576.70335707 2151.74952479 1567.58645829 2146 1558.5 C2138.30101223 1546.33264116 2130.68742066 1534.11191904 2123.06347656 1521.89746094 C2116.72995992 1511.75166063 2110.39528868 1501.60701335 2104 1491.5 C2096.30101223 1479.33264116 2088.68742066 1467.11191904 2081.06347656 1454.89746094 C2074.25618781 1443.99271462 2067.44059082 1433.09391285 2060.56445312 1422.23242188 C2055.80318774 1414.70490592 2051.09283827 1407.14580421 2046.37963867 1399.58813477 C2042.25700388 1392.98624305 2038.08535203 1386.4207466 2033.83203125 1379.90234375 C2032.18976328 1377.30062711 2030.66812539 1374.65342856 2029.15454102 1371.97583008 C2026.75167411 1367.86367066 2024.13537545 1363.88202449 2021.5625 1359.875 C2016.7758297 1352.3888484 2012.03845816 1344.87603072 2007.375 1337.3125 C2003.32661144 1330.74825318 1999.25156359 1324.20290913 1995.125 1317.6875 C1990.62207834 1310.5772306 1986.14600642 1303.45070964 1981.6875 1296.3125 C1981.05948486 1295.30703125 1980.43146973 1294.3015625 1979.78442383 1293.265625 C1977.21023003 1289.14324359 1974.6368705 1285.02034169 1972.06347656 1280.89746094 C1965.25392316 1269.98908682 1958.43504703 1259.08731911 1951.55786133 1248.22143555 C1946.86463584 1240.80008199 1942.21599805 1233.35108374 1937.56640625 1225.90234375 C1933.72850947 1219.75699983 1929.87479572 1213.62213789 1926 1207.5 C1920.25788745 1198.42550651 1914.56481151 1189.3207308 1908.87890625 1180.2109375 C1906.26654436 1176.02560448 1903.64902933 1171.84356125 1901.02734375 1167.6640625 C1894.86749885 1157.83844449 1888.73191073 1148.00784893 1882.83203125 1138.0234375 C1880.5477654 1134.25366827 1878.10127039 1130.6100263 1875.61328125 1126.97265625 C1872.57685305 1122.51375718 1869.75032326 1117.95192163 1867 1113.3125 C1862.63279947 1105.95448033 1858.04578828 1098.74586437 1853.43554688 1091.53833008 C1849.40244632 1085.22501799 1845.42890584 1078.87861646 1841.5 1072.5 C1837.09879955 1065.35856807 1832.63956462 1058.25781227 1828.125 1051.1875 C1818.6024678 1036.26811036 1809.11296943 1021.32305347 1800.07348633 1006.10473633 C1796.21326727 999.63003359 1792.10189285 993.3228072 1788 987 C1784.42115942 981.43038185 1780.89088104 975.83582662 1777.4375 970.1875 C1773.69434692 964.08025024 1769.85352133 958.03811483 1766 952 C1761.66645101 945.20958225 1757.37966038 938.39957249 1753.18359375 931.5234375 C1750.20608153 926.68443522 1747.12278383 921.91185608 1744.0625 917.125 C1739.64630565 910.21401458 1735.31013294 903.27120051 1731.13012695 896.21508789 C1727.88051375 890.74771472 1724.44692533 885.40709494 1720.98828125 880.0703125 C1716.56179233 873.23490918 1712.32257736 866.28355344 1708.0625 859.34375 C1704.40882873 853.42037385 1700.71226051 847.53376369 1696.90307617 841.70898438 C1693.09896246 835.88929275 1689.3771084 830.09668668 1686.09765625 823.9609375 C1684.43418154 820.98917842 1682.517311 818.20287713 1680.60546875 815.38671875 C1677.64415619 810.98437818 1674.83171357 806.48634906 1672 802 C1671.59136719 801.35675781 1671.18273438 800.71351563 1670.76171875 800.05078125 C1668.77388613 796.90167185 1666.83411254 793.72823513 1664.9375 790.5234375 C1661.0228047 783.91833384 1657.03498352 777.49587159 1652.546875 771.2578125 C1650.57262184 768.37620056 1648.95905284 765.35770399 1647.3125 762.28125 C1645.84831526 759.73635747 1644.20910524 757.38685388 1642.5 755 C1640.39097014 752.0482595 1638.45295236 749.13979086 1636.75 745.9375 C1633.88485491 740.59490272 1630.53525258 735.58050788 1627.22412109 730.50830078 C1623.71424615 725.12507869 1620.32240533 719.68612562 1616.9765625 714.19921875 C1614.08271708 709.5153069 1611.08202085 704.90296008 1608.078125 700.2890625 C1606.32472952 697.51395161 1604.68888549 694.70164328 1603.07617188 691.84375 C1601.05310493 688.37773331 1598.82525686 685.04265482 1596.625 681.6875 C1592.61398985 675.53054324 1588.74446905 669.32399217 1585 663 C1581.04 656.565 1581.04 656.565 1577 650 C1427.84 650 1278.68 650 1125 650 Z M350 1250 C350 1714.97 350 2179.94 350 2659 C493.22 2659 636.44 2659 784 2659 C784 2194.03 784 1729.06 784 1250 C640.78 1250 497.56 1250 350 1250 Z " fill="#808080" transform="translate(0,0)"/>
</svg>
